<?xml version="1.0" encoding="UTF-8" standalone="no"?>
<!DOCTYPE svg PUBLIC "-//W3C//DTD SVG 1.1//EN" "http://www.w3.org/Graphics/SVG/1.1/DTD/svg11.dtd">
<svg width="100%" height="100%" viewBox="0 0 448 512" version="1.1" xmlns="http://www.w3.org/2000/svg" xmlns:xlink="http://www.w3.org/1999/xlink" xml:space="preserve" xmlns:serif="http://www.serif.com/" style="fill-rule:evenodd;clip-rule:evenodd;stroke-linejoin:round;stroke-miterlimit:2;">
    <path d="M224,0C206.3,0 192,14.3 192,32L192,51.2C119,66 64,130.6 64,208L64,226.8C64,273.8 46.7,319.2 15.5,354.4L8.1,362.7C-0.3,372.1 -2.3,385.6 2.8,397.1C7.9,408.6 19.4,416 32,416L416,416C428.6,416 440,408.6 445.2,397.1C450.4,385.6 448.3,372.1 439.9,362.7L432.5,354.4C401.3,319.2 384,273.9 384,226.8L384,208C384,130.6 329,66 256,51.2L256,32C256,14.3 241.7,0 224,0ZM269.3,493.3C281.3,481.3 288,465 288,448L160,448C160,465 166.7,481.3 178.7,493.3C190.7,505.3 207,512 224,512C241,512 257.3,505.3 269.3,493.3Z" style="fill:rgb(255,215,0);fill-rule:nonzero;"/>
</svg>
